<svg height="407.12598" width="538.58264" xmlns="http://www.w3.org/2000/svg"><clipPath><path d="m0 0v846.04797h1279.17v-846.04797z"/></clipPath><clipPath><path d="m649.462 27.024h602.688v792h-602.688z"/></clipPath><clipPath><path d="m647.462 36.024h594v155.709h-594z"/></clipPath><clipPath><path d="m657.564 44.702h577.082v144.896h-577.082z"/></clipPath><clipPath><path d="m647.462 36.024h594v155.709h-594z"/></clipPath><clipPath><path d="m78.104 731.676h55.2v42.648h-55.2z"/></clipPath><clipPath><path d="m78.104 726.024h58.278v49.402h-58.278z"/></clipPath><clipPath><path d="m78.104 731.676h55.2v42.648h-55.2z"/></clipPath><clipPath><path d="m0 0h1279.173v846.048h-1279.173z"/></clipPath><g transform="matrix(7.931911625 0 0 -7.931911625 385.41966379406 3.60148393968)"><path d="m0 0c2.547-.076 5.056-1.691 6.066-4.08l6.211-13.863 4.922-11.037c.346-1.048.326-2.344.137-3.464l-3.653-13.498c-.828-2.364-3.253-4.268-5.712-4.454l-46.381.005c-2.405.153-4.828 1.817-5.727 4.112l-.51 1.479-1.918 7.02-1.48 5.397c-.225 1.239-.049 2.536.34 3.629l10.646 24.411c.912 2.468 3.455 4.232 6.055 4.343z" fill="#1e59ae"/><path d="m0 0c2.547-.076 5.056-1.691 6.066-4.08l6.211-13.863 4.922-11.037c.346-1.048.326-2.344.137-3.464l-3.653-13.498c-.828-2.364-3.253-4.268-5.712-4.454l-46.381.005c-2.405.153-4.828 1.817-5.727 4.112l-.51 1.479-1.918 7.02-1.48 5.397c-.225 1.239-.049 2.536.34 3.629l10.646 24.411c.912 2.468 3.455 4.232 6.055 4.343z" fill="none"/></g><g transform="matrix(7.931911625 0 0 -7.931911625 387.02904866277 23.02118317116)"><path d="m0 0c1.674-.129 3.309-1.524 3.789-3.117l9.775-21.696c.598-1.231 1.623-2.713 1.221-4.37l-.545-2.237-2.949-10.904c-.385-1.609-2.037-2.906-3.604-3.171l-45.746-.009c-1.457.027-2.765.583-3.648 1.824-.883 1.452-4.221 14.432-4.221 14.432-.16 1.268.348 2.378.83 3.435l8.254 18.854 2.026 4.589c.834 1.497 2.416 2.279 4.011 2.374z" fill="#fff"/><path d="m0 0c1.674-.129 3.309-1.524 3.789-3.117l9.775-21.696c.598-1.231 1.623-2.713 1.221-4.37l-.545-2.237-2.949-10.904c-.385-1.609-2.037-2.906-3.604-3.171l-45.746-.009c-1.457.027-2.765.583-3.648 1.824-.883 1.452-4.221 14.432-4.221 14.432-.16 1.268.348 2.378.83 3.435l8.254 18.854 2.026 4.589c.834 1.497 2.416 2.279 4.011 2.374z" fill="none"/></g><g transform="matrix(7.931911625 0 0 -7.931911625 263.03106061147 178.12654223339)"><path d="m0 0 5.729 14.772 8.705.004 7.726-25.176-10.658.001-1.187 13.823-6.907-13.823-6.744-.008-6.986 13.716-1.145-13.708-10.638-.007 7.488 25.169 8.723.004z" fill="#ed114c"/><path d="m0 0 5.729 14.772 8.705.004 7.726-25.176-10.658.001-1.187 13.823-6.907-13.823-6.744-.008-6.986 13.716-1.145-13.708-10.638-.007 7.488 25.169 8.723.004z" fill="none"/></g><g transform="matrix(7.931911625 0 0 -7.931911625 101.01383375922 314.21593636584)"><path d="m0 0 .756 3.628 2.205-.002.885-7.036-1.709-.002-.529 4.551c-.281-1.497-.494-3.047-.738-4.551l-1.776-.006-.754 4.533c-.213-1.494-.353-3.029-.531-4.533l-1.736-.003.964 7.054 2.208-.005z" fill="#1e59ae"/><path d="m0 0 .756 3.628 2.205-.002.885-7.036-1.709-.002-.529 4.551c-.281-1.497-.494-3.047-.738-4.551l-1.776-.006-.754 4.533c-.213-1.494-.353-3.029-.531-4.533l-1.736-.003.964 7.054 2.208-.005z" fill="none"/></g><g transform="matrix(7.931911625 0 0 -7.931911625 179.93556123681 341.32721030009)"><path d="m0 0-1.801.01-.207 1.219-1.645.01-.242-1.232-1.738-.008 1.463 7.046h2.638z" fill="#1e59ae"/><path d="m0 0-1.801.01-.207 1.219-1.645.01-.242-1.232-1.738-.008 1.463 7.046h2.638z" fill="none"/></g><g transform="matrix(7.931911625 0 0 -7.931911625 216.4310798146 287.12052625484)"><path d="m0 0c1.018-.51.979-1.778.918-2.727-.109-.516-.308-1.146-.891-1.329l.002-.188.985-2.584-1.738-.007s-.846 2.496-.85 2.514c-.123.065-.33.064-.453-.003v-2.51l-1.686.01.006 7.032s2.664.225 3.707-.208" fill="#1e59ae"/><path d="m0 0c1.018-.51.979-1.778.918-2.727-.109-.516-.308-1.146-.891-1.329l.002-.188.985-2.584-1.738-.007s-.846 2.496-.85 2.514c-.123.065-.33.064-.453-.003v-2.51l-1.686.01.006 7.032s2.664.225 3.707-.208z" fill="none"/></g><g transform="matrix(7.931911625 0 0 -7.931911625 398.55490944506 290.18065775976)"><path d="m0 0c.777-1.092.639-2.652.59-4.004-.057-.968-.406-2.069-1.447-2.377-1.086-.279-2.215-.305-3.129.364-1.041 1.035-.733 2.737-.772 4.163.069.844.252 1.729 1.037 2.214 1.067.575 2.756.563 3.721-.36" fill="#1e59ae"/><path d="m0 0c.777-1.092.639-2.652.59-4.004-.057-.968-.406-2.069-1.447-2.377-1.086-.279-2.215-.305-3.129.364-1.041 1.035-.733 2.737-.772 4.163.069.844.252 1.729 1.037 2.214 1.067.575 2.756.563 3.721-.36z" fill="none"/></g><g transform="matrix(7.931911625 0 0 -7.931911625 307.87729574806 297.32175779575)"><path d="m0 0h-1.519l-.006-5.541-1.684.003-.001 5.548h-1.516l.002 1.505 4.724-.001z" fill="#1e59ae"/><path d="m0 0h-1.519l-.006-5.541-1.684.003-.001 5.548h-1.516l.002 1.505 4.724-.001z" fill="none"/></g><g transform="matrix(7.931911625 0 0 -7.931911625 326.58153655098 307.63958843755)"><path d="m0 0 1.512-.011.007 2.82 1.725.005v-7.054l-1.723-.008v2.745l-1.519-.001-.01-2.732-1.732-.003.005 7.053 1.725.003z" fill="#1e59ae"/><path d="m0 0 1.512-.011.007 2.82 1.725.005v-7.054l-1.723-.008v2.745l-1.519-.001-.01-2.732-1.732-.003.005 7.053 1.725.003z" fill="none"/></g><g transform="matrix(7.931911625 0 0 -7.931911625 439.88810092294 321.17222286096)"><path d="m0 0 .002 4.521h1.574v-7.067h-2.314l-1.229 4.241v-4.241h-1.515v7.067h2.31z" fill="#1e59ae"/><path d="m0 0 .002 4.521h1.574v-7.067h-2.314l-1.229 4.241v-4.241h-1.515v7.067h2.31z" fill="none"/></g><g transform="matrix(7.931911625 0 0 -7.931911625 161.76355170394 320.94061104151)"><path d="m0 0-1.106.004.568 3.006c.235-.956.362-2.006.538-3.01" fill="#fff"/><path d="m0 0-1.106.004.568 3.006c.235-.956.362-2.006.538-3.01z" fill="none"/></g><g transform="matrix(7.931911625 0 0 -7.931911625 208.23582872365 297.91109882949)"><path d="m0 0c.293-.325.314-.87.168-1.265-.102-.142-.162-.303-.42-.342l-.705-.007-.002 1.733s.705.069.959-.119" fill="#fff"/><path d="m0 0c.293-.325.314-.87.168-1.265-.102-.142-.162-.303-.42-.342l-.705-.007-.002 1.733s.705.069.959-.119z" fill="none"/></g><g transform="matrix(7.931911625 0 0 -7.931911625 387.21306901247 297.62396362866)"><path d="m0 0c.481-.844.26-2.298.223-3.417-.057-.272-.111-.583-.373-.725-.32-.143-.805-.146-1.088.086-.264.35-.228.432-.299.865-.148.907-.273 2.301.205 3.133.315.332.991.365 1.332.058" fill="#fff"/><path d="m0 0c.481-.844.26-2.298.223-3.417-.057-.272-.111-.583-.373-.725-.32-.143-.805-.146-1.088.086-.264.35-.228.432-.299.865-.148.907-.273 2.301.205 3.133.315.332.991.365 1.332.058z" fill="none"/></g><g transform="matrix(7.931911625 0 0 -7.931911625 272.65167622144 341.32721030009)"><path d="m0 0-1.801.01-.207 1.219-1.64.01-.245-1.232-1.738-.008 1.461 7.046h2.639z" fill="#1e59ae"/><path d="m0 0-1.801.01-.207 1.219-1.64.01-.245-1.232-1.738-.008 1.461 7.046h2.639z" fill="none"/></g><g transform="matrix(7.931911625 0 0 -7.931911625 254.51139433506 320.94061104151)"><path d="m0 0-1.109.004.57 3.006c.232-.956.363-2.006.539-3.01" fill="#fff"/><path d="m0 0-1.109.004.57 3.006c.232-.956.363-2.006.539-3.01z" fill="none"/></g><path d="m0 0c.28 0 .53.021.53.356 0 .269-.245.32-.474.32h-.45v-.676zm-.394-1.225h-.331v2.18h.831c.514 0 .769-.189.769-.62 0-.39-.245-.56-.564-.6l.62-.96h-.37l-.576.946h-.379zm.399-.485c.855 0 1.53.67 1.53 1.58 0 .896-.675 1.57-1.53 1.57-.864 0-1.54-.674-1.54-1.57 0-.91.676-1.58 1.54-1.58m-1.92 1.58c0 1.085.88 1.885 1.92 1.885 1.03 0 1.91-.8 1.91-1.885 0-1.095-.88-1.894-1.91-1.894-1.04 0-1.92.799-1.92 1.894" fill="#1e59ae" transform="matrix(7.931911625 0 0 -7.931911625 519.84970201456 387.47031298736)"/></svg>